<?xml version="1.0" standalone="no"?>
<!DOCTYPE svg PUBLIC "-//W3C//DTD SVG 20010904//EN"
 "http://www.w3.org/TR/2001/REC-SVG-20010904/DTD/svg10.dtd">
<svg version="1.0" xmlns="http://www.w3.org/2000/svg"
 width="768.000000pt" height="768.000000pt" viewBox="0 0 768.000000 768.000000"
 preserveAspectRatio="xMidYMid meet">

<g transform="translate(0.000000,768.000000) scale(0.100000,-0.100000)"
fill="#000000" stroke="none">
<path d="M1465 5825 c-134 -25 -229 -73 -326 -163 -211 -195 -277 -508 -159
-749 21 -43 50 -94 64 -113 l27 -35 -536 -3 -535 -2 0 -548 0 -547 303 -910
304 -910 350 -3 350 -2 33 92 c17 51 35 97 40 101 4 5 23 -36 41 -90 l34 -98
764 0 764 0 52 150 53 150 75 3 75 3 37 -108 c21 -59 46 -128 54 -153 l17 -45
862 -3 862 -2 0 40 c0 22 2 40 4 40 2 0 27 -11 55 -26 108 -54 132 -55 900
-52 791 4 749 1 911 80 162 79 289 241 336 428 23 89 23 247 0 325 -23 77 -60
149 -104 203 l-34 42 196 0 196 0 0 920 0 920 -286 0 c-268 0 -286 1 -281 18
4 9 18 51 33 92 22 61 28 97 32 197 6 153 -12 240 -76 366 -37 75 -62 108
-136 183 -77 78 -105 98 -186 138 -173 84 -130 80 -887 84 l-673 3 0 -232 c0
-128 -2 -230 -5 -227 -3 3 -41 106 -83 229 l-78 224 -1684 2 c-1358 1 -1699
-1 -1755 -12z m2223 -447 l-3 -153 -307 -3 -308 -2 0 -535 0 -535 -230 0 -230
0 0 535 0 535 -433 0 c-479 0 -465 2 -493 -66 -20 -47 -9 -67 166 -304 166
-227 187 -270 176 -366 -16 -134 -88 -239 -204 -296 l-67 -33 -722 -3 -723 -3
0 151 0 150 588 0 c539 0 590 1 622 18 45 22 59 59 41 110 -8 20 -79 132 -159
247 -80 116 -152 228 -160 250 -10 27 -12 64 -9 117 10 159 101 277 250 323
34 11 259 14 1125 14 l1083 1 -3 -152z m1146 -281 c82 -237 188 -548 237 -689
l88 -258 -192 0 -192 0 -51 148 -51 147 -294 3 -294 2 -34 -97 c-19 -54 -43
-122 -53 -150 l-19 -53 -190 0 c-104 0 -189 3 -189 8 0 7 162 514 346 1080
l95 292 322 0 322 0 149 -433z m1571 418 c213 -55 355 -272 316 -482 -15 -82
-49 -155 -98 -212 -43 -51 -139 -116 -185 -126 l-31 -7 109 -109 c76 -77 120
-112 144 -119 19 -6 153 -10 298 -10 l262 0 0 -150 0 -150 -420 0 c-334 0
-427 3 -453 14 -32 14 -106 79 -366 325 l-141 133 0 -236 0 -236 -230 0 -230
0 0 690 0 690 483 0 c403 0 493 -3 542 -15z m-4105 -692 l0 -98 -33 61 c-18
34 -43 74 -55 89 -12 15 -22 32 -22 36 0 5 25 9 55 9 l55 0 0 -97z m1213 90
c2 -5 -27 -100 -64 -213 l-67 -205 -1 206 c-1 113 2 209 6 212 9 10 121 9 126
0z m-1213 -853 l0 -220 -272 1 -273 1 71 18 c89 23 191 75 265 133 67 53 151
162 181 235 12 28 23 52 25 52 2 0 3 -99 3 -220z m2206 -67 l53 -153 -180 0
c-141 0 -180 3 -177 13 2 7 25 77 53 155 l49 143 74 -3 74 -3 54 -152z m1700
-102 c32 -17 89 -35 126 -42 l69 -12 -83 -24 c-107 -31 -193 -80 -273 -155
-55 -51 -129 -146 -149 -190 -4 -9 -9 -8 -18 6 -125 185 -274 295 -468 345
l-75 20 403 0 402 1 0 40 c0 22 2 40 4 40 2 0 29 -13 62 -29z m-2217 -468 l-1
-418 -134 400 c-74 220 -137 408 -140 418 -5 16 6 17 135 17 l141 0 -1 -417z
m-3135 -190 l99 -297 72 200 c39 109 87 243 106 296 l34 98 217 0 216 0 100
-297 99 -298 99 298 99 297 197 0 c109 0 198 -3 198 -7 0 -4 -102 -315 -227
-690 l-228 -683 -130 0 -130 0 -24 68 c-13 37 -77 224 -144 415 -66 191 -123
344 -128 340 -4 -4 -70 -190 -147 -413 l-140 -405 -132 0 -133 0 -224 670
c-123 369 -226 678 -229 688 -5 16 8 17 188 17 l193 0 99 -297z m2860 -381
c124 -372 226 -683 226 -690 0 -9 -44 -12 -189 -12 l-188 0 -54 155 -53 155
-292 0 -292 0 -53 -155 -54 -155 -182 0 c-101 0 -183 3 -183 6 0 6 259 814
396 1237 l45 137 324 0 323 0 226 -678z m1699 641 c176 -84 279 -269 249 -450
-24 -144 -112 -263 -241 -325 l-68 -33 84 -95 c46 -52 98 -103 116 -112 29
-16 72 -18 473 -18 l441 0 26 26 c34 33 42 75 23 111 -8 15 -83 106 -168 201
-200 227 -212 245 -216 336 -9 164 83 309 236 372 56 23 61 24 455 24 l397 0
0 -150 0 -149 -264 -3 c-291 -3 -287 -2 -323 -72 -27 -53 -12 -82 160 -297 89
-112 168 -217 176 -234 38 -85 18 -230 -45 -322 -38 -55 -81 -89 -159 -125
l-50 -23 -715 0 c-701 0 -716 0 -747 20 -18 11 -133 116 -257 233 -124 116
-228 212 -231 212 -3 0 -5 -106 -5 -235 l0 -235 -230 0 -230 0 0 690 0 691
523 -3 522 -3 68 -32z m529 -700 c26 -23 22 -33 -12 -33 -31 0 -35 6 -24 34 8
20 13 20 36 -1z"/>
<path d="M4355 5289 c-8 -23 -175 -523 -175 -526 0 -2 81 -3 180 -3 139 0 180
3 180 13 0 15 -167 517 -174 525 -3 3 -8 -1 -11 -9z"/>
<path d="M5840 5071 l0 -151 201 0 c223 0 250 6 292 64 30 42 31 123 1 162
-50 67 -55 69 -285 72 l-209 3 0 -150z"/>
<path d="M3072 3041 c-49 -148 -87 -272 -84 -275 7 -8 347 -8 354 0 5 5 -166
531 -176 541 -2 2 -44 -117 -94 -266z"/>
<path d="M4768 3224 c-5 -4 -8 -74 -8 -156 l0 -148 200 0 c182 0 204 2 241 20
59 30 81 72 76 142 -2 44 -9 64 -28 84 -51 54 -69 58 -279 62 -107 2 -198 0
-202 -4z"/>
</g>
</svg>
